<?xml version="1.0" standalone="no"?><!DOCTYPE svg PUBLIC "-//W3C//DTD SVG 1.1//EN" "http://www.w3.org/Graphics/SVG/1.1/DTD/svg11.dtd"><svg t="1733987203656" class="icon" viewBox="0 0 1024 1024" version="1.1" xmlns="http://www.w3.org/2000/svg" p-id="2247" xmlns:xlink="http://www.w3.org/1999/xlink" width="200" height="200"><path d="M512 512m-512 0a512 512 0 1 0 1024 0 512 512 0 1 0-1024 0Z" fill="#1990FF" opacity=".2" p-id="2248"></path><path d="M512 512m-409.6 0a409.6 409.6 0 1 0 819.2 0 409.6 409.6 0 1 0-819.2 0Z" fill="#1990FF" p-id="2249"></path><path d="M839.68 457.386667H184.32l73.9328-68.266667h507.4944L839.68 457.386667z" fill="#5BC1F4" p-id="2250"></path><path d="M290.133333 709.495467h436.906667v0.477866h-436.906667zM290.133333 696.046933h436.906667v13.448534h-436.906667z" fill="#DCF1FF" p-id="2251"></path><path d="M290.133333 682.5984h436.906667v13.448533h-436.906667z" fill="#DDF1FF" p-id="2252"></path><path d="M290.133333 669.149867h436.906667v13.448533h-436.906667z" fill="#DEF2FF" p-id="2253"></path><path d="M290.133333 655.701333h436.906667v13.448534h-436.906667z" fill="#DFF2FF" p-id="2254"></path><path d="M290.133333 642.2528h436.906667v13.448533h-436.906667z" fill="#E0F3FF" p-id="2255"></path><path d="M290.133333 628.804267h436.906667v13.448533h-436.906667z" fill="#E1F3FF" p-id="2256"></path><path d="M290.133333 615.355733h436.906667v13.448534h-436.906667z" fill="#E2F3FF" p-id="2257"></path><path d="M290.133333 601.9072h436.906667v13.448533h-436.906667z" fill="#E3F4FF" p-id="2258"></path><path d="M290.133333 588.458667h436.906667v13.448533h-436.906667z" fill="#E4F4FF" p-id="2259"></path><path d="M290.133333 575.010133h436.906667v13.448534h-436.906667z" fill="#E5F5FF" p-id="2260"></path><path d="M290.133333 561.5616h436.906667v13.448533h-436.906667z" fill="#E6F5FF" p-id="2261"></path><path d="M290.133333 548.113067h436.906667v13.448533h-436.906667z" fill="#E7F6FF" p-id="2262"></path><path d="M290.133333 534.664533h436.906667v13.448534h-436.906667z" fill="#E8F6FF" p-id="2263"></path><path d="M290.133333 521.284267h436.906667v13.448533h-436.906667z" fill="#E9F6FF" p-id="2264"></path><path d="M290.133333 507.835733h436.906667v13.448534h-436.906667z" fill="#EAF7FF" p-id="2265"></path><path d="M290.133333 494.3872h436.906667v13.448533h-436.906667z" fill="#EBF7FF" p-id="2266"></path><path d="M290.133333 480.938667h436.906667v13.448533h-436.906667z" fill="#ECF8FF" p-id="2267"></path><path d="M290.133333 467.490133h436.906667v13.448534h-436.906667z" fill="#EEF8FF" p-id="2268"></path><path d="M290.133333 454.0416h436.906667v13.448533h-436.906667z" fill="#EFF8FF" p-id="2269"></path><path d="M290.133333 440.593067h436.906667v13.448533h-436.906667z" fill="#F0F9FF" p-id="2270"></path><path d="M290.133333 427.144533h436.906667v13.448534h-436.906667z" fill="#F1F9FF" p-id="2271"></path><path d="M290.133333 413.696h436.906667v13.448533h-436.906667z" fill="#F2FAFF" p-id="2272"></path><path d="M290.133333 400.247467h436.906667v13.448533h-436.906667z" fill="#F3FAFF" p-id="2273"></path><path d="M290.133333 386.798933h436.906667v13.448534h-436.906667z" fill="#F4FAFF" p-id="2274"></path><path d="M290.133333 373.3504h436.906667v13.448533h-436.906667z" fill="#F5FBFF" p-id="2275"></path><path d="M290.133333 359.901867h436.906667v13.448533h-436.906667z" fill="#F6FBFF" p-id="2276"></path><path d="M290.133333 346.453333h436.906667v13.448534h-436.906667z" fill="#F7FCFF" p-id="2277"></path><path d="M290.133333 333.073067h436.906667v13.448533h-436.906667z" fill="#F8FCFF" p-id="2278"></path><path d="M290.133333 319.624533h436.906667v13.448534h-436.906667z" fill="#F9FDFF" p-id="2279"></path><path d="M290.133333 306.176h436.906667v13.448533h-436.906667z" fill="#FAFDFF" p-id="2280"></path><path d="M290.133333 292.727467h436.906667v13.448533h-436.906667z" fill="#FBFDFF" p-id="2281"></path><path d="M290.133333 279.278933h436.906667v13.448534h-436.906667z" fill="#FCFEFF" p-id="2282"></path><path d="M290.133333 265.8304h436.906667v13.448533h-436.906667z" fill="#FDFEFF" p-id="2283"></path><path d="M290.133333 252.381867h436.906667v13.448533h-436.906667z" fill="#FEFFFF" p-id="2284"></path><path d="M290.133333 238.933333h436.906667v13.448534h-436.906667z" fill="#FFFFFF" p-id="2285"></path><path d="M392.533333 344.746667m20.138667 0l0.682667 0q20.138667 0 20.138666 20.138666l0 164.522667q0 20.138667-20.138666 20.138667l-0.682667 0q-20.138667 0-20.138667-20.138667l0-164.522667q0-20.138667 20.138667-20.138666Z" fill="#FF9600" p-id="2286"></path><path d="M488.106667 327.68m20.138666 0l0.682667 0q20.138667 0 20.138667 20.138667l0 164.522666q0 20.138667-20.138667 20.138667l-0.682667 0q-20.138667 0-20.138666-20.138667l0-164.522666q0-20.138667 20.138666-20.138667Z" fill="#FF9600" p-id="2287"></path><path d="M583.68 307.2m20.138667 0l0.682666 0q20.138667 0 20.138667 20.138667l0 164.522666q0 20.138667-20.138667 20.138667l-0.682666 0q-20.138667 0-20.138667-20.138667l0-164.522666q0-20.138667 20.138667-20.138667Z" fill="#FF9600" p-id="2288"></path><path d="M184.32 457.386667h655.36v336.964266A72.635733 72.635733 0 0 1 767.044267 866.986667H256.955733A72.635733 72.635733 0 0 1 184.32 794.350933V457.386667z" fill="#70CAFF" p-id="2289"></path><path d="M624.503467 616.174933l-100.283734 37.751467a34.133333 34.133333 0 0 1-24.439466 0l-100.283734-37.751467a9.489067 9.489067 0 0 1 0-18.090666l100.283734-37.819734a35.0208 35.0208 0 0 1 24.439466 0l100.283734 37.819734a9.489067 9.489067 0 0 1 0 18.090666z" fill="#FFFFFF" p-id="2290"></path><path d="M512 715.434667a43.895467 43.895467 0 0 1-15.5648-2.8672L395.946667 674.816a9.352533 9.352533 0 1 1 6.826666-17.476267l100.215467 37.751467a26.0096 26.0096 0 0 0 17.885867 0L621.226667 657.339733a9.352533 9.352533 0 1 1 6.826666 17.476267l-100.283733 37.751467a43.281067 43.281067 0 0 1-15.7696 2.8672z" fill="#FFFFFF" p-id="2291"></path><path d="M512 766.293333a45.397333 45.397333 0 0 1-15.5648-2.798933L395.946667 725.742933a9.352533 9.352533 0 1 1 6.826666-17.476266l100.215467 37.751466a26.0096 26.0096 0 0 0 17.885867 0l100.352-37.819733a9.352533 9.352533 0 1 1 6.826666 17.476267l-100.283733 37.819733a44.714667 44.714667 0 0 1-15.7696 2.798933z" fill="#FFFFFF" p-id="2292"></path><path d="M47.786667 75.093333m-47.786667 0a47.786667 47.786667 0 1 0 95.573333 0 47.786667 47.786667 0 1 0-95.573333 0Z" fill="#1990FF" p-id="2293"></path><path d="M1003.52 921.6m-20.48 0a20.48 20.48 0 1 0 40.96 0 20.48 20.48 0 1 0-40.96 0Z" fill="#1990FF" p-id="2294"></path></svg>