<?xml version="1.0" standalone="no"?><!DOCTYPE svg PUBLIC "-//W3C//DTD SVG 1.1//EN" "http://www.w3.org/Graphics/SVG/1.1/DTD/svg11.dtd"><svg t="1733987157495" class="icon" viewBox="0 0 1024 1024" version="1.1" xmlns="http://www.w3.org/2000/svg" p-id="1432" xmlns:xlink="http://www.w3.org/1999/xlink" width="200" height="200"><path d="M512 512m-512 0a512 512 0 1 0 1024 0 512 512 0 1 0-1024 0Z" fill="#1990FF" opacity=".2" p-id="1433"></path><path d="M512 512m-409.6 0a409.6 409.6 0 1 0 819.2 0 409.6 409.6 0 1 0-819.2 0Z" fill="#1990FF" p-id="1434"></path><path d="M47.786667 75.093333m-47.786667 0a47.786667 47.786667 0 1 0 95.573333 0 47.786667 47.786667 0 1 0-95.573333 0Z" fill="#1990FF" p-id="1435"></path><path d="M1003.52 921.6m-20.48 0a20.48 20.48 0 1 0 40.96 0 20.48 20.48 0 1 0-40.96 0Z" fill="#1990FF" p-id="1436"></path><path d="M513.8432 697.617067A172.2368 172.2368 0 0 1 443.733333 680.413867a352.6656 352.6656 0 0 1-62.737066-36.590934A301.738667 301.738667 0 0 1 298.120533 549.546667l-1.570133-2.798934-27.306667-215.313066a19.319467 19.319467 0 0 1 20.821334-21.2992h2.4576a261.188267 261.188267 0 0 0 85.060266-13.653334h0.546134a446.122667 446.122667 0 0 0 121.582933-59.255466 24.507733 24.507733 0 0 1 27.306667 0 589.277867 589.277867 0 0 0 121.514666 60.757333 314.026667 314.026667 0 0 0 57.1392 13.653333 161.109333 161.109333 0 0 0 19.182934 1.4336h6.3488a19.319467 19.319467 0 0 1 23.278933 20.8896l-26.282667 212.241067-1.501866 2.730667a300.373333 300.373333 0 0 1-81.032534 93.252266 354.986667 354.986667 0 0 1-62.122666 37.2736 173.192533 173.192533 0 0 1-69.700267 18.158934z" fill="#FFFFFF" p-id="1437"></path><path d="M513.092267 729.224533a206.370133 206.370133 0 0 1-81.92-19.933866A386.8672 386.8672 0 0 1 362.496 669.013333a334.506667 334.506667 0 0 1-91.9552-104.106666L266.24 556.782933l-27.989333-221.457066a49.629867 49.629867 0 0 1 12.151466-39.458134 52.8384 52.8384 0 0 1 40.277334-17.271466h3.822933a227.054933 227.054933 0 0 0 73.181867-11.8784L368.64 266.24a415.880533 415.880533 0 0 0 113.390933-55.227733 55.5008 55.5008 0 0 1 62.2592-0.682667 567.7056 567.7056 0 0 0 114.4832 57.821867A288.5632 288.5632 0 0 0 709.973333 279.893333a140.219733 140.219733 0 0 0 15.36 1.092267 21.2992 21.2992 0 0 0 3.003734 0 52.701867 52.701867 0 0 1 43.076266 14.7456 49.629867 49.629867 0 0 1 14.336 41.5744l-27.306666 218.453333-4.369067 7.9872a331.639467 331.639467 0 0 1-89.565867 103.765334 388.642133 388.642133 0 0 1-68.266666 40.96 205.4144 205.4144 0 0 1-82.670934 21.0944h-1.024z m-185.9584-192.512a270.677333 270.677333 0 0 0 72.9088 81.92 314.5728 314.5728 0 0 0 56.661333 33.041067 143.837867 143.837867 0 0 0 56.388267 14.5408h0.546133a143.36 143.36 0 0 0 56.7296-15.291733 325.768533 325.768533 0 0 0 56.388267-34.133334 270.1312 270.1312 0 0 0 70.8608-81.1008l23.688533-191.624533a196.061867 196.061867 0 0 1-19.592533-1.570133 344.4736 344.4736 0 0 1-62.8736-14.609067h-1.092267a620.7488 620.7488 0 0 1-123.904-61.44 479.232 479.232 0 0 1-126.088533 60.142933A288.836267 288.836267 0 0 1 302.626133 341.333333z" fill="#5BC1F4" p-id="1438"></path><path d="M296.96 791.893333a215.04 30.72 0 1 0 430.08 0 215.04 30.72 0 1 0-430.08 0Z" fill="#70CAFF" p-id="1439"></path><path d="M420.2496 791.893333a91.7504 13.1072 0 1 0 183.5008 0 91.7504 13.1072 0 1 0-183.5008 0Z" fill="#5BC1F4" p-id="1440"></path><path d="M488.2432 532.48a18.705067 18.705067 0 0 1-12.765867-4.983467l-58.299733-53.6576a18.773333 18.773333 0 0 1 25.3952-27.306666l58.368 53.6576A18.773333 18.773333 0 0 1 488.2432 532.48z" fill="#FF9600" p-id="1441"></path><path d="M488.8576 532.48a18.773333 18.773333 0 0 1-12.6976-32.631467L581.4272 402.773333a18.773333 18.773333 0 0 1 25.3952 27.306667L501.623467 527.496533a18.705067 18.705067 0 0 1-12.765867 4.983467z" fill="#FF9600" p-id="1442"></path><path d="M304.3328 645.666133h-8.669867c-80.759467-1.160533-128-19.456-136.533333-52.906666-6.826667-25.3952 10.103467-53.521067 49.5616-83.626667A13.653333 13.653333 0 0 1 225.28 530.8416c-28.603733 21.777067-43.076267 41.847467-39.662933 55.022933 3.8912 14.9504 34.952533 31.3344 110.660266 32.494934 71.816533 1.024 163.498667-11.946667 258.594134-36.522667 215.04-55.637333 334.165333-139.741867 324.881066-175.581867-3.618133-13.653333-28.8768-24.9856-67.584-29.696a13.653333 13.653333 0 1 1 3.345067-27.306666c53.248 6.826667 83.7632 23.3472 90.658133 49.9712 18.8416 72.840533-163.362133 161.9968-344.4736 208.827733-93.7984 24.439467-184.661333 37.614933-257.365333 37.614933z" fill="#FF9600" p-id="1443"></path></svg>